<?xml version="1.0" encoding="UTF-8" standalone="no"?>
<!-- Created with Inkscape (http://www.inkscape.org/) -->

<svg
   xmlns:dc="http://purl.org/dc/elements/1.1/"
   xmlns:cc="http://creativecommons.org/ns#"
   xmlns:rdf="http://www.w3.org/1999/02/22-rdf-syntax-ns#"
   xmlns:svg="http://www.w3.org/2000/svg"
   xmlns="http://www.w3.org/2000/svg"
   xmlns:sodipodi="http://sodipodi.sourceforge.net/DTD/sodipodi-0.dtd"
   xmlns:inkscape="http://www.inkscape.org/namespaces/inkscape"
   width="27mm"
   height="8mm"
   viewBox="0 0 27 8"
   version="1.1"
   id="svg963"
   inkscape:version="0.92.5 (2060ec1f9f, 2020-04-08)"
   sodipodi:docname="aumentar_daño_chat.svg">
  <defs
     id="defs957" />
  <sodipodi:namedview
     id="base"
     pagecolor="#ffffff"
     bordercolor="#666666"
     borderopacity="1.0"
     inkscape:pageopacity="0.0"
     inkscape:pageshadow="2"
     inkscape:zoom="7.7899352"
     inkscape:cx="54.806895"
     inkscape:cy="19.464149"
     inkscape:document-units="mm"
     inkscape:current-layer="g959"
     showgrid="false"
     inkscape:window-width="1920"
     inkscape:window-height="1022"
     inkscape:window-x="0"
     inkscape:window-y="0"
     inkscape:window-maximized="1" />
  <metadata
     id="metadata960">
    <rdf:RDF>
      <cc:Work
         rdf:about="">
        <dc:format>image/svg+xml</dc:format>
        <dc:type
           rdf:resource="http://purl.org/dc/dcmitype/StillImage" />
        <dc:title></dc:title>
      </cc:Work>
    </rdf:RDF>
  </metadata>
  <g
     inkscape:label="Capa 1"
     inkscape:groupmode="layer"
     id="layer1"
     transform="translate(0,-289)">
    <flowRoot
       xml:space="preserve"
       id="flowRoot849"
       style="font-style:normal;font-weight:normal;font-size:40px;line-height:1.25;font-family:sans-serif;letter-spacing:0px;word-spacing:0px;fill:#000000;fill-opacity:1;stroke:none"
       transform="matrix(0.26458333,0,0,0.26458333,0,277)"><flowRegion
         id="flowRegion851"><rect
           id="rect853"
           width="14.523495"
           height="47.927532"
           x="1.0892621"
           y="15.499591" /></flowRegion><flowPara
         id="flowPara855">¡</flowPara></flowRoot>    <g
       id="g959"
       transform="translate(0.22348376,0.64533057)">
      <path
         style="fill:#8d2121;fill-opacity:1;stroke-width:0.01564168"
         inkscape:connector-curvature="0"
         d="m 21.350705,296.22557 v -3.84707 h -1.360356 l 3.318538,-3.46693 3.318506,3.46688 h -1.360325 v 3.8471 h -0.611871 v -4.70858 c 0.0041,-0.0431 0.0063,-0.0868 0.0063,-0.13092 0,-0.7551 -0.615249,-1.37037 -1.370367,-1.37037 -0.726822,0 -1.323975,0.57008 -1.367709,1.28619 h -0.0045 v 4.92368 z m 1.986775,-0.13272 -0.430115,-3.6244 -0.273886,2.0022 c -0.05618,-0.99108 -0.395202,-2.10437 -0.396751,-3.07503 0,-0.58062 0.473787,-1.05437 1.054375,-1.05437 0.580572,0 1.054374,0.47375 1.054374,1.05437 0,0.0303 -0.0016,0.0603 -0.0041,0.09 -0.09907,0.77839 -0.211881,1.57594 -0.319214,2.3607 l -0.209943,-1.535 c -0.0092,0.005 -0.01839,0.0104 -0.02775,0.0154 z m -0.04638,-3.93501 c 0.422747,0 0.762219,-0.33947 0.762219,-0.76222 0,-0.42273 -0.339534,-0.76226 -0.762219,-0.76226 -0.422747,0 -0.762219,0.33951 -0.762219,0.76226 0,0.42274 0.33955,0.76222 0.762219,0.76222 z"
         id="path919" />
      <path
         style="fill:#8d2121;fill-opacity:1;stroke-width:0.01564168"
         inkscape:connector-curvature="0"
         d="m 1.2684867,296.17365 v -3.84707 h -1.36035597 l 3.31853797,-3.46693 3.318506,3.46688 h -1.360325 v 3.8471 h -0.611871 v -4.70858 c 0.0041,-0.0431 0.0063,-0.0868 0.0063,-0.13092 0,-0.7551 -0.615249,-1.37037 -1.370367,-1.37037 -0.726822,0 -1.323975,0.57008 -1.367709,1.28619 h -0.0045 v 4.92368 z m 1.986775,-0.13272 -0.430115,-3.6244 -0.273886,2.0022 c -0.05618,-0.99108 -0.395202,-2.10437 -0.396751,-3.07503 0,-0.58062 0.473787,-1.05437 1.054375,-1.05437 0.580572,0 1.054374,0.47375 1.054374,1.05437 0,0.0303 -0.0016,0.0603 -0.0041,0.09 -0.09907,0.77839 -0.211881,1.57594 -0.319214,2.3607 l -0.209943,-1.535 c -0.0092,0.005 -0.01839,0.0104 -0.02775,0.0154 z m -0.04638,-3.93501 c 0.422747,0 0.762219,-0.33947 0.762219,-0.76222 0,-0.42273 -0.339534,-0.76226 -0.762219,-0.76226 -0.422747,0 -0.762219,0.33951 -0.762219,0.76226 0,0.42274 0.33955,0.76222 0.762219,0.76222 z"
         id="path919-1" />
      <text
         id="text881"
         y="294.55371"
         x="6.6077008"
         style="font-style:normal;font-variant:normal;font-weight:normal;font-stretch:condensed;font-size:4.93888903px;line-height:1.25;font-family:Girassol;-inkscape-font-specification:'Girassol, Condensed';font-variant-ligatures:normal;font-variant-caps:normal;font-variant-numeric:normal;font-feature-settings:normal;text-align:start;letter-spacing:0px;word-spacing:0px;writing-mode:lr-tb;text-anchor:start;fill:#000000;fill-opacity:1;stroke:none;stroke-width:0.26458332"
         xml:space="preserve"><tspan
           style="font-style:normal;font-variant:normal;font-weight:normal;font-stretch:condensed;font-size:4.93888903px;font-family:Girassol;-inkscape-font-specification:'Girassol, Condensed';font-variant-ligatures:normal;font-variant-caps:normal;font-variant-numeric:normal;font-feature-settings:normal;text-align:start;writing-mode:lr-tb;text-anchor:start;stroke-width:0.26458332"
           y="294.55371"
           x="6.6077008"
           id="tspan879"
           sodipodi:role="line">Proeza</tspan></text>
    </g>
  </g>
</svg>
