<?xml version="1.0" encoding="UTF-8" standalone="no"?>
<!-- Created with Inkscape (http://www.inkscape.org/) -->

<svg
   xmlns:dc="http://purl.org/dc/elements/1.1/"
   xmlns:cc="http://creativecommons.org/ns#"
   xmlns:rdf="http://www.w3.org/1999/02/22-rdf-syntax-ns#"
   xmlns:svg="http://www.w3.org/2000/svg"
   xmlns="http://www.w3.org/2000/svg"
   xmlns:sodipodi="http://sodipodi.sourceforge.net/DTD/sodipodi-0.dtd"
   xmlns:inkscape="http://www.inkscape.org/namespaces/inkscape"
   width="400"
   height="200"
   viewBox="0 0 105.83333 52.91667"
   version="1.1"
   id="svg1174"
   inkscape:version="0.92.5 (2060ec1f9f, 2020-04-08)"
   sodipodi:docname="dialogo_tirada_panico.svg">
  <defs
     id="defs1168" />
  <sodipodi:namedview
     id="base"
     pagecolor="#ffffff"
     bordercolor="#666666"
     borderopacity="1.0"
     inkscape:pageopacity="0.0"
     inkscape:pageshadow="2"
     inkscape:zoom="2.2740222"
     inkscape:cx="204.77167"
     inkscape:cy="80.557751"
     inkscape:document-units="mm"
     inkscape:current-layer="layer1"
     showgrid="false"
     units="px"
     inkscape:window-width="1920"
     inkscape:window-height="1022"
     inkscape:window-x="0"
     inkscape:window-y="0"
     inkscape:window-maximized="1"
     borderlayer="true" />
  <metadata
     id="metadata1171">
    <rdf:RDF>
      <cc:Work
         rdf:about="">
        <dc:format>image/svg+xml</dc:format>
        <dc:type
           rdf:resource="http://purl.org/dc/dcmitype/StillImage" />
        <dc:title></dc:title>
      </cc:Work>
    </rdf:RDF>
  </metadata>
  <g
     inkscape:label="Capa 1"
     inkscape:groupmode="layer"
     id="layer1"
     transform="translate(0,-244.08334)">
    <circle
       style="opacity:1;vector-effect:none;fill:#fefefe;fill-opacity:1;stroke:none;stroke-width:1.59489465;stroke-linecap:butt;stroke-linejoin:miter;stroke-miterlimit:4;stroke-dasharray:none;stroke-dashoffset:0;stroke-opacity:1"
       id="path2847-9-4-8"
       cx="50.787025"
       cy="279.19147"
       r="12.318706" />
    <g
       id="g830-1-4"
       transform="matrix(0.00214282,0,0,-0.00214282,37.178115,293.04819)"
       style="fill:#000000;stroke:none">
      <path
         id="path826-0-8"
         d="m 12732.256,5965.4314 c 13.136,248.5404 13.37,381.7618 1.21,381.4229 -7.072,-0.033 -10.167,57.9365 -8.473,150.5763 2.443,83.4508 1.236,191.6336 -2.238,239.5599 -19.109,248.9575 -41.88,464.0981 -67.194,617.0008 -15.283,93.9757 -34.659,216.7826 -44.109,272.6011 -73.066,479.5107 -269.044,1085.0275 -507.915,1577.3497 -123.501,253.2839 -344.907,638.2053 -488.57,847.8379 -164.733,239.8 -439.499,603.828 -562.614,742.985 -288.029,326.489 -605.75,620.738 -890.937,821.657 -136.07,96.53 -521.1642,341.535 -654.0279,417.432 -253.8068,143.08 -679.4947,328.077 -980.7587,427.238 -267.5513,87.438 -378.9734,113.935 -635.5366,149.38 -243.6855,33.665 -321.9096,37.406 -318.7031,16.773 4.3343,-19.779 66.2591,-46.505 264.71,-115.311 103.1195,-35.446 210.0643,-72.429 236.1261,-81.077 37.5382,-13.262 23.5331,-12.337 -64.9358,4.933 -61.8599,12.584 -215.9816,36.904 -342.7774,54.421 -252.6008,34.898 -280.1679,32.649 -220.1261,-15.016 24.4195,-20.535 74.2881,-39.539 179.936,-71.296 l 145.4412,-43.311 -188.3819,32.082 c -127.3758,20.626 -218.7839,31.235 -281.2954,31.795 -91.9228,-0.424 -92.9135,-0.287 -63.9842,-17.407 21.4151,-13.054 220.2113,-64.746 278.6562,-72.82 1.9812,-0.274 3.0044,-7.481 1.9097,-15.406 -3.4214,-24.765 141.8113,-84.199 469.1371,-192.009 172.9366,-56.195 370.5339,-123.873 438.5394,-150.43 139.8365,-54.651 284.385,-119.039 277.6203,-124.161 -2.3918,-2.698 -38.3594,7.318 -79.86,21.128 -88.6711,30.421 -82.8644,28.609 -84.5066,16.722 -0.8211,-5.944 6.5562,-11.001 16.4622,-12.369 11.7502,-2.633 8.231,-6.185 -13.0862,-14.344 -15.9537,-5.872 -27.365,-15.4 -25.2143,-21.754 3.2781,-5.501 33.2306,-29.829 66.2917,-53.577 36.8866,-25.285 53.7919,-41.754 41.768,-41.102 -11.8871,1.642 -25.3122,-0.541 -30.9494,-4.81 -6.6279,-4.132 -59.1292,3.121 -118.871,16.422 -150.0552,31.835 -272.9601,33.672 -276.9288,4.945 -1.7791,-12.878 64.5842,-51.322 250.6985,-143.66 183.9964,-93.056 192.3643,-98.25 164.3866,-103.47 -14.5525,-3.037 -3.0433,-14.722 49.9991,-47.288 153.1838,-96.875 528.6059,-360.734 650.3974,-458.32 155.5695,-123.451 225.4456,-187.617 548.7973,-506.872 346.3696,-342.625 481.5406,-489.506 709.4246,-776.3909 112.661,-141.7515 123.655,-164.4699 35.544,-71.5375 -159.728,166.4248 -282.75,255.095 -289.319,207.5465 -2.464,-17.8307 64.259,-134.0552 202.728,-352.0558 418.104,-656.3942 634.512,-1092.1094 809.12,-1633.0946 191.95,-590.8275 269.605,-1175.9597 247.256,-1849.2357 -6.151,-168.7457 -91.684,-787.8656 -131.378,-950.968 -78.157,-317.2892 -186.683,-642.4969 -297.106,-893.749 -718.93,-1638.0244 -2177.6134,-2792.2607 -3929.5102,-3109.4956 -377.8512,-67.9297 -765.8042,-92.06451 -1199.4874,-74.55 -171.581,7.5529 -677.7731,77.4837 -851.9089,117.693 -670.9241,156.2875 -1280.9863,424.2972 -1865.3331,819.9888 -775.5771,524.0692 -1400.7422,1245.4109 -1819.8977,2098.8021 -468.562,956.119 -634.49243,1976.4264 -508.26453,3123.9483 99.73753,911.9306 416.64303,1744.3937 975.59823,2560.5789 88.6375,130.0937 52.1488,99.8023 -52.4098,-43.2345 C 1460.6175,9081.2888 1158.7784,8416.3399 974.52687,7645.3008 933.05353,7469.3208 845.60533,6836.3327 837.67522,6654.7092 782.72564,5292.412 1154.7653,4076.0537 1959.0862,2992.7893 c 86.9447,-115.9898 202.7469,-264.2323 257.6274,-327.3365 135.7836,-157.0599 142.4766,-167.0699 49.719,-78.5431 -22.3015,21.2519 -48.1221,38.9521 -57.1743,39.1932 -23.1941,0.1758 -244.5928,260.9279 -390.035,457.683 -321.2082,437.07 -570.2339,892.4339 -750.3877,1378.6629 -97.80941,263.8679 -204.65937,739.9699 -247.07461,1105.2108 -51.82634,443.263 -51.65248,773.3447 1.21024,1331.3604 13.21572,139.504 25.10182,291.3056 25.31654,336.7033 4.00677,204.3745 147.4954,768.0411 289.91663,1133.9936 330.1285,847.7978 854.9804,1607.1149 1545.3399,2234.5411 115.3444,104.195 426.623,347.889 643.8415,502.618 173.659,124.405 402.4194,260.378 619.1496,367.728 55.3099,27.692 98.0485,52.072 95.4872,55.454 -12.806,16.912 -398.0662,-192.333 -606.7412,-329.062 -58.7964,-38.314 -151.9963,-99.132 -207.4106,-134.885 -140.8587,-91.584 -492.7253,-366.013 -631.0292,-490.255 -554.3105,-504.892 -988.9088,-1085.8824 -1310.1167,-1752.1935 -94.561,-194.8928 -214.5249,-493.2829 -277.146,-683.5028 -23.41521,-74.4965 -51.03393,-157.4977 -59.68194,-183.5594 -9.05843,-29.0336 -14.25247,-37.4015 -13.0535,-21.4152 5.27199,52.7751 112.26024,374.1573 189.16014,565.433 146.7941,368.3769 337.0373,729.7416 554.0529,1051.0659 530.528,785.789 1190.7202,1392.146 2002.135,1836.281 85.2036,46.78 153.326,86.834 150.7647,90.216 -4.1318,6.628 -118.2709,-52.306 -271.8706,-141.121 C 2862.2004,10932.901 2259.8204,10394.27 1796.3453,9757.7081 1208.0829,8948.6002 838.3381,7982.1072 723.44258,6953.15 707.93939,6819.0096 692.63829,6671.7178 689.17805,6624.7494 l -7.67003,-84.7476 -1.82534,89.0879 c -2.5948,163.8971 18.46671,411.3429 56.37461,685.7368 85.83861,614.0298 222.06155,1066.6459 472.31931,1570.1348 229.2407,460.965 582.559,972.4248 928.8787,1345.5407 840.9602,906.442 1928.4554,1529.478 3077.4218,1764.451 193.1453,38.934 186.8302,58.987 -6.8952,23.161 -977.6793,-178.886 -1962.154,-662.711 -2748.5483,-1349.554 -42.5364,-37.532 -80.0157,-67.686 -81.997,-67.412 -2.9717,0.41 19.4076,23.565 50.3961,50.579 341.5237,309.17 706.7437,570.65 1108.0618,793.828 328.106,182.818 607.1454,302.76 1068.0233,460.169 178.0518,61.209 331.0977,116.788 340.1172,123.617 13.5293,10.245 13.8031,12.227 -3.037,14.553 -23.7742,3.284 -88.7816,-6.915 -184.7059,-28.996 -38.5678,-8.804 -74.607,-13.92 -79.1494,-10.264 -24.4195,20.535 -629.4669,-215.888 -945.5425,-370.083 -569.3598,-277.695 -1133.1793,-683.352 -1594.9089,-1146.521 -127.9549,-129.71 -344.6125,-375.371 -459.7612,-521.9924 -116.5498,-149.4561 -134.1457,-167.2151 -59.1092,-62.4988 176.8971,250.1452 479.4161,583.8842 755.3071,834.4862 431.9277,393.593 897.588,709.842 1412.4916,958.718 186.2565,91.37 400.6602,181.88 406.6364,173.988 6.8298,-9.019 132.2044,36.249 157.4188,58.003 12.4018,9.391 60.3998,27.998 106.4491,39.807 46.0494,11.809 131.6245,39.357 190.0757,60.557 212.7614,78.623 666.145,174.479 1007.7813,214.098 439.0269,50.393 805.1479,55.335 1244.7357,14.795 291.1687,-26.092 313.3723,-26.131 136.1932,-0.644 -429.2325,64.347 -1005.502,58.152 -1517.3958,-15.488 -588.2083,-85.305 -1174.8649,-261.679 -1702.203,-512.876 -85.373,-40.699 -160.1885,-70.743 -164.7309,-67.087 -16.1884,14.35 -227.7962,-99.765 -559.4929,-301.267 -23.1288,-13.966 -14.4156,-2.047 28.2578,36.476 70.5531,64.956 65.398,78.791 -16.1821,43.625 l -55.7533,-23.592 55.8249,38.724 c 90.6386,64.2 363.1282,224.417 521.9871,307.458 493.9316,257.831 1058.1174,461.538 1588.363,573.022 80.1074,17.199 160.2148,34.398 176.8854,38.151 l 31.223,6.791 -35.2181,0.828 c -19.095,0.619 -117.3067,-16.098 -217.0564,-36.64 -892.9317,-186.556 -1729.6786,-565.613 -2456.6057,-1114.294 -229.9984,-174.163 -341.9933,-268.726 -553.3462,-468.683 -228.812,-216.726 -332.4063,-323.554 -494.0539,-507.159 C 979.5008,9478.8712 522.25119,8565.8564 306.34804,7543.787 261.9292,7331.872 204.68625,6895.6012 191.99899,6672.2359 148.65889,5920.0906 247.21447,5157.4276 479.75364,4443.891 678.15589,3834.0012 992.21626,3199.0476 1330.291,2723.3055 c 44.7008,-63.7168 80.7273,-117.1498 80.4536,-119.131 -2.3265,-16.8401 -64.2779,46.2315 -115.8086,118.9679 -322.81159,447.3865 -641.68808,1084.015 -821.89441,1642.935 -288.65858,891.8948 -370.27718,1784.4621 -252.76788,2737.3459 120.55264,967.6059 449.22109,1855.9853 990.20879,2673.6431 551.2388,833.4036 1291.9617,1518.4796 2175.5655,2010.1826 978.8174,545.177 2027.2257,812.213 3128.4172,796.364 239.7295,-3.844 383.4042,-1.484 389.5889,6.748 21.9361,27.254 -307.8656,58.684 -585.8892,55.704 -1066.286,-9.164 -2110.5299,-289.898 -3026.66,-812.441 C 2385.2481,11316.784 1608.0628,10565.071 1056.8113,9673.1186 419.78975,8642.6005 103.87675,7503.1129 109.89336,6260.5994 113.25425,5532.2872 269.01675,4723.36 538.62468,4037.0063 872.79153,3182.2329 1349.8763,2463.1778 2021.3055,1799.0432 2531.9125,1293.4089 3197.2404,848.16845 3897.1338,543.52054 4424.7095,314.16314 4909.7088,178.51394 5602.9144,66.594715 5676.0815,55.476412 5577.876,68.034447 5384.9843,96.701713 5150.351,130.12596 4982.9082,160.32535 4882.2459,184.32711 3863.8388,434.0473 3013.3292,861.46232 2230.6412,1516.7395 c -86.8856,72.5727 -159.564,131.0693 -161.9558,128.3715 -8.8827,-5.8393 70.2477,-83.398 183.9772,-180.8792 C 2947.2335,872.61181 3770.1759,442.94876 4681.6642,193.86697 5041.6143,95.683272 5594.0192,2.2055728 5929.699,-15.902391 6667.9762,-57.32701 7335.3276,8.9685103 7976.7078,186.86868 c 69.211,18.70379 167.3901,42.49191 218.2555,52.62643 474.766,89.87345 1159.1776,381.95872 1712.088,730.57161 192.4797,121.80468 545.2327,388.03428 703.6617,533.72428 275.037,251.7287 561.974,560.3646 693.767,747.0855 268.917,382.8001 369.037,537.5543 508.598,787.8099 38.854,69.335 109.557,193.8302 156.27,276.2122 258.718,447.8078 458.559,966.3376 604.14,1567.0667 54.26,224.6884 145.976,852.0391 158.768,1083.4661 z m -252.313,1841.8583 c -175.697,715.7789 -483.078,1435.6169 -863.384,2022.1811 -102.41,157.4967 -316.594,448.5472 -447.151,606.9032 -85.615,103.692 -77.964,100.616 28.486,-13.021 283.252,-302.61 636.851,-863.2759 875.169,-1388.8349 165.731,-364.106 337.276,-854.1932 400.989,-1145.6545 20.372,-93.6695 25.209,-160.9644 5.891,-81.5739 z m -460.173,885.305 c -6.967,8.0289 -31.381,57.8384 -54.119,112.4643 -176.582,417.0895 -483.87,932.9964 -752.7,1266.928 -98.285,121.594 -347.779,463.959 -303.86,416.502 16.768,-17.459 87.015,-100.857 156.273,-184.118 368.483,-445.6202 674.989,-945.2671 911.972,-1487.8029 30.591,-70.8531 55.617,-130.8423 55.343,-132.8236 -0.409,-2.9716 -5.806,1.8118 -12.909,8.8502 z m -1734.599,2431.2573 c -1.982,0.273 -31.217,22.483 -63.868,49.203 -75.239,61.879 -232.8609,170.471 -383.4836,263.964 -64.108,40.151 -124.6971,83.854 -135.0795,96.392 -36.267,44.382 -512.0785,334.224 -695.6317,423.18 -63.4956,29.972 -96.5569,53.72 -71.7918,50.299 37.6424,-5.201 398.8702,-196.435 582.3843,-307.595 217.9767,-132.073 499.7813,-335.553 731.8863,-526.11 36.203,-30.238 52.424,-51.66 35.584,-49.333 z m -883.3762,562.18 c -182.9337,108.052 -569.474,298.744 -758.9053,374.38 -143.5253,57.18 -381.0525,135.422 -606.2168,200.852 -70.8078,20.886 -134.4077,42.796 -139.667,48.57 -6.2499,5.911 -19.1603,14.761 -29.6462,19.238 -38.972,17.498 94.4125,-18.09 307.6898,-81.878 237.6314,-70.18 433.28,-144.656 681.0131,-258.631 235.5393,-107.243 668.2537,-343.685 640.276,-348.905 -6.2178,-1.161 -48.7417,19.857 -94.5436,46.374 z m -1268.7619,717.382 c -7.5142,4.067 -4.1319,6.628 6.7646,5.122 11.0334,-0.514 16.5664,-4.307 12.1934,-6.732 -3.3823,-2.561 -12.4345,-2.32 -18.958,1.61 z m -371.1582,-77.94 c -24.2175,7.384 -38.2552,15.38 -31.0473,16.403 7.3447,2.014 38.9067,-3.356 68.9309,-12.551 34.977,-9.88 46.3167,-15.484 31.0472,-16.403 -13.1513,-0.202 -44.7134,5.168 -68.9308,12.551 z M 2478.7446,10853.632 C 1879.1015,10334.812 1390.7249,9700.6814 1041.0182,8988.842 876.67356,8654.1842 733.35972,8267.1556 622.93749,7862.4594 585.94761,7726.24 567.25055,7671.2817 521.79487,7561.4691 c -22.65942,-54.4109 5.41513,83.0403 58.64508,285.662 345.80552,1312.02 1113.68205,2456.7049 2175.11455,3241.8329 l 138.2649,102.038 -147.3887,-116.93 c -81.4496,-63.45 -201.1997,-162.999 -267.6861,-220.44 z M 918.6549,7861.9856 c -1.0232,7.2079 0.89263,21.0761 4.10555,29.7178 4.34024,9.4953 5.50037,3.2781 3.31075,-12.5714 -2.32647,-16.8401 -5.26571,-23.5005 -7.4163,-17.1464 z"
         inkscape:connector-curvature="0" />
      <path
         id="path828-3-1"
         d="M 11489,2413 C 11061,1869 10568,1414 9995,1035 9197,506 8303,167 7380,41 7180,13 7152,8 7168,3 c 20,-8 331,36 527,73 949,183 1837,577 2620,1165 349,261 677,566 963,893 128,147 276,335 269,342 -2,3 -29,-26 -58,-63 z"
         inkscape:connector-curvature="0" />
    </g>
    <text
       xml:space="preserve"
       style="font-style:normal;font-variant:normal;font-weight:normal;font-stretch:condensed;font-size:9.02514458px;line-height:1.25;font-family:Girassol;-inkscape-font-specification:'Girassol, Condensed';font-variant-ligatures:normal;font-variant-caps:normal;font-variant-numeric:normal;font-feature-settings:normal;text-align:center;letter-spacing:0px;word-spacing:0px;writing-mode:lr-tb;text-anchor:middle;fill:#000000;fill-opacity:1;stroke:none;stroke-width:0.56407154"
       x="52.035294"
       y="263.79422"
       id="text1171-9-6-0-1"><tspan
         sodipodi:role="line"
         x="52.035294"
         y="263.79422"
         style="font-style:normal;font-variant:normal;font-weight:normal;font-stretch:condensed;font-size:9.02514458px;font-family:Girassol;-inkscape-font-specification:'Girassol, Condensed';font-variant-ligatures:normal;font-variant-caps:normal;font-variant-numeric:normal;font-feature-settings:normal;text-align:center;writing-mode:lr-tb;text-anchor:middle;stroke-width:0.56407154"
         id="tspan2212-9">Nivel de Pánico</tspan></text>
  </g>
</svg>
