<?xml version="1.0" encoding="UTF-8" standalone="no"?>
<!-- Created with Inkscape (http://www.inkscape.org/) -->

<svg
   xmlns:dc="http://purl.org/dc/elements/1.1/"
   xmlns:cc="http://creativecommons.org/ns#"
   xmlns:rdf="http://www.w3.org/1999/02/22-rdf-syntax-ns#"
   xmlns:svg="http://www.w3.org/2000/svg"
   xmlns="http://www.w3.org/2000/svg"
   xmlns:sodipodi="http://sodipodi.sourceforge.net/DTD/sodipodi-0.dtd"
   xmlns:inkscape="http://www.inkscape.org/namespaces/inkscape"
   width="23mm"
   height="27mm"
   viewBox="0 0 23 27"
   version="1.1"
   id="svg963"
   inkscape:version="0.92.5 (2060ec1f9f, 2020-04-08)"
   sodipodi:docname="penalizador.svg">
  <defs
     id="defs957" />
  <sodipodi:namedview
     id="base"
     pagecolor="#ffffff"
     bordercolor="#666666"
     borderopacity="1.0"
     inkscape:pageopacity="0.0"
     inkscape:pageshadow="2"
     inkscape:zoom="10.836266"
     inkscape:cx="30.457814"
     inkscape:cy="56.719099"
     inkscape:document-units="mm"
     inkscape:current-layer="layer1"
     showgrid="false"
     inkscape:window-width="1920"
     inkscape:window-height="1022"
     inkscape:window-x="0"
     inkscape:window-y="0"
     inkscape:window-maximized="1" />
  <metadata
     id="metadata960">
    <rdf:RDF>
      <cc:Work
         rdf:about="">
        <dc:format>image/svg+xml</dc:format>
        <dc:type
           rdf:resource="http://purl.org/dc/dcmitype/StillImage" />
        <dc:title />
      </cc:Work>
    </rdf:RDF>
  </metadata>
  <g
     inkscape:label="Capa 1"
     inkscape:groupmode="layer"
     id="layer1"
     transform="translate(0,-270)">
    <g
       style="fill:none;stroke:#000000"
       id="g6397"
       transform="matrix(0.05393522,0,0,0.05393522,1.3661629,275.12941)">
      <path
         style="stroke-width:2.93549991"
         inkscape:connector-curvature="0"
         id="path3545"
         d="m 74.38,57.67 c -55.901,58.7 -53.629,151.71 5.071,207.61 58.699,55.9 151.71,53.63 207.61,-5.07 55.9,-58.7 53.63,-151.71 -5.07,-207.61 -58.7,-55.902 -151.71,-53.63 -207.61,5.07 z M 79.626,72.462 170.71,159.2 83.992,250.27 C 37.336,200.93 35.449,124.02 79.626,72.46 Z M 89.41,62.188 C 138.75,15.546 215.66,13.676 267.22,57.866 L 180.5,148.93 Z m 4.833,197.84 86.717,-91.06 91.09,86.74 c -49.34,46.63 -126.25,48.49 -177.81,4.32 z m 96.507,-101.34 86.72,-91.061 c 46.63,49.341 48.53,126.25 4.36,177.8 l -91.08,-86.74 z" />
      <path
         style="stroke-width:0.84285003"
         inkscape:connector-curvature="0"
         id="path3574"
         transform="matrix(1.3585,0,0,1.3585,37.219,23.703)"
         d="m 42,20.5 a 2,2 0 1 1 -4,0 2,2 0 1 1 4,0 z" />
      <path
         style="stroke-width:0.84285003"
         inkscape:connector-curvature="0"
         id="path3576"
         transform="matrix(1.3585,0,0,1.3585,14.603,46.833)"
         d="m 42,20.5 a 2,2 0 1 1 -4,0 2,2 0 1 1 4,0 z" />
      <path
         style="stroke-width:0.84285003"
         inkscape:connector-curvature="0"
         id="path3578"
         transform="matrix(1.3585,0,0,1.3585,238.4,215.58)"
         d="m 42,20.5 a 2,2 0 1 1 -4,0 2,2 0 1 1 4,0 z" />
      <path
         style="stroke-width:0.84285003"
         inkscape:connector-curvature="0"
         id="path3580"
         transform="matrix(1.3585,0,0,1.3585,215.78,238.71)"
         d="m 42,20.5 a 2,2 0 1 1 -4,0 2,2 0 1 1 4,0 z" />
      <path
         style="stroke-width:0.84285003"
         inkscape:connector-curvature="0"
         id="path3582"
         transform="matrix(-1.3585,0,0,-1.3585,150.05,297.69)"
         d="m 42,20.5 a 2,2 0 1 1 -4,0 2,2 0 1 1 4,0 z" />
      <path
         style="stroke-width:0.84285003"
         inkscape:connector-curvature="0"
         id="path3584"
         transform="matrix(-1.3585,0,0,-1.3585,127.27,275.78)"
         d="m 42,20.5 a 2,2 0 1 1 -4,0 2,2 0 1 1 4,0 z" />
      <path
         style="stroke-width:0.84285003"
         inkscape:connector-curvature="0"
         id="path3592"
         transform="matrix(-1.3585,0,0,-1.3585,342.38,96.868)"
         d="m 42,20.5 a 2,2 0 1 1 -4,0 2,2 0 1 1 4,0 z" />
      <path
         style="stroke-width:0.84285003"
         inkscape:connector-curvature="0"
         id="path3594"
         transform="matrix(-1.3585,0,0,-1.3585,318.9,74.607)"
         d="m 42,20.5 a 2,2 0 1 1 -4,0 2,2 0 1 1 4,0 z" />
      <path
         style="stroke-width:0.84285003"
         inkscape:connector-curvature="0"
         id="path3596"
         transform="matrix(-1.3585,0,0,-1.3585,108.68,246.78)"
         d="m 42,20.5 a 2,2 0 1 1 -4,0 2,2 0 1 1 4,0 z" />
      <path
         style="stroke-width:0.84285003"
         inkscape:connector-curvature="0"
         id="path3598"
         transform="matrix(-1.3585,0,0,-1.3585,105.35,133.65)"
         d="m 42,20.5 a 2,2 0 1 1 -4,0 2,2 0 1 1 4,0 z" />
      <path
         style="stroke-width:0.84285003"
         inkscape:connector-curvature="0"
         id="path3600"
         transform="matrix(-1.3585,0,0,-1.3585,97.371,211.42)"
         d="m 42,20.5 a 2,2 0 1 1 -4,0 2,2 0 1 1 4,0 z" />
      <path
         style="stroke-width:0.84285003"
         inkscape:connector-curvature="0"
         id="path3602"
         transform="matrix(-1.3585,0,0,-1.3585,96.161,169.36)"
         d="m 42,20.5 a 2,2 0 1 1 -4,0 2,2 0 1 1 4,0 z" />
      <path
         style="stroke-width:0.84285003"
         inkscape:connector-curvature="0"
         id="path3604"
         transform="matrix(0,-1.3585,1.3585,0,92.012,87.201)"
         d="m 42,20.5 a 2,2 0 1 1 -4,0 2,2 0 1 1 4,0 z" />
      <path
         style="stroke-width:0.84285003"
         inkscape:connector-curvature="0"
         id="path3606"
         transform="matrix(0,-1.3585,1.3585,0,205.14,83.869)"
         d="m 42,20.5 a 2,2 0 1 1 -4,0 2,2 0 1 1 4,0 z" />
      <path
         style="stroke-width:0.84285003"
         inkscape:connector-curvature="0"
         id="path3608"
         transform="matrix(0,-1.3585,1.3585,0,127.37,75.887)"
         d="m 42,20.5 a 2,2 0 1 1 -4,0 2,2 0 1 1 4,0 z" />
      <path
         style="stroke-width:0.84285003"
         inkscape:connector-curvature="0"
         id="path3610"
         transform="matrix(0,-1.3585,1.3585,0,169.43,74.677)"
         d="m 42,20.5 a 2,2 0 1 1 -4,0 2,2 0 1 1 4,0 z" />
      <path
         style="stroke-width:0.84285003"
         inkscape:connector-curvature="0"
         id="path3622"
         transform="matrix(1.3585,0,0,1.3585,252.29,69.113)"
         d="m 42,20.5 a 2,2 0 1 1 -4,0 2,2 0 1 1 4,0 z" />
      <path
         style="stroke-width:0.84285003"
         inkscape:connector-curvature="0"
         id="path3624"
         transform="matrix(1.3585,0,0,1.3585,256.69,183.65)"
         d="m 42,20.5 a 2,2 0 1 1 -4,0 2,2 0 1 1 4,0 z" />
      <path
         style="stroke-width:0.84285003"
         inkscape:connector-curvature="0"
         id="path3626"
         transform="matrix(1.3585,0,0,1.3585,263.61,104.47)"
         d="m 42,20.5 a 2,2 0 1 1 -4,0 2,2 0 1 1 4,0 z" />
      <path
         style="stroke-width:0.84285003"
         inkscape:connector-curvature="0"
         id="path3628"
         transform="matrix(1.3585,0,0,1.3585,264.82,146.53)"
         d="m 42,20.5 a 2,2 0 1 1 -4,0 2,2 0 1 1 4,0 z" />
      <path
         style="stroke-width:0.84285003"
         inkscape:connector-curvature="0"
         id="path3640"
         transform="matrix(0,1.3585,-1.3585,0,268.26,230.81)"
         d="m 42,20.5 a 2,2 0 1 1 -4,0 2,2 0 1 1 4,0 z" />
      <path
         style="stroke-width:0.84285003"
         inkscape:connector-curvature="0"
         id="path3642"
         transform="matrix(0,1.3585,-1.3585,0,155.13,233.43)"
         d="m 42,20.5 a 2,2 0 1 1 -4,0 2,2 0 1 1 4,0 z" />
      <path
         style="stroke-width:0.84285003"
         inkscape:connector-curvature="0"
         id="path3644"
         transform="matrix(0,1.3585,-1.3585,0,232.9,241.42)"
         d="m 42,20.5 a 2,2 0 1 1 -4,0 2,2 0 1 1 4,0 z" />
      <path
         style="stroke-width:0.84285003"
         inkscape:connector-curvature="0"
         id="path3646"
         transform="matrix(0,1.3585,-1.3585,0,190.84,242.63)"
         d="m 42,20.5 a 2,2 0 1 1 -4,0 2,2 0 1 1 4,0 z" />
      <path
         style="stroke-width:0.84285003"
         inkscape:connector-curvature="0"
         id="path3660"
         transform="matrix(-1.3585,0,0,-1.3585,156.97,112.08)"
         d="m 42,20.5 a 2,2 0 1 1 -4,0 2,2 0 1 1 4,0 z" />
      <path
         style="stroke-width:0.84285003"
         inkscape:connector-curvature="0"
         id="path3662"
         transform="matrix(-1.3585,0,0,-1.3585,214.75,166.87)"
         d="m 42,20.5 a 2,2 0 1 1 -4,0 2,2 0 1 1 4,0 z" />
      <path
         style="stroke-width:0.84285003"
         inkscape:connector-curvature="0"
         id="path3664"
         transform="matrix(-1.3585,0,0,-1.3585,185.61,139.66)"
         d="m 42,20.5 a 2,2 0 1 1 -4,0 2,2 0 1 1 4,0 z" />
      <path
         style="stroke-width:0.84285003"
         inkscape:connector-curvature="0"
         id="path3666"
         transform="matrix(-1.3585,0,0,-1.3585,257.03,207.37)"
         d="m 42,20.5 a 2,2 0 1 1 -4,0 2,2 0 1 1 4,0 z" />
      <path
         style="stroke-width:0.84285003"
         inkscape:connector-curvature="0"
         id="path3668"
         transform="matrix(-1.3585,0,0,-1.3585,316.57,264.28)"
         d="m 42,20.5 a 2,2 0 1 1 -4,0 2,2 0 1 1 4,0 z" />
      <path
         style="stroke-width:0.84285003"
         inkscape:connector-curvature="0"
         id="path3670"
         transform="matrix(-1.3585,0,0,-1.3585,286.02,234.94)"
         d="m 42,20.5 a 2,2 0 1 1 -4,0 2,2 0 1 1 4,0 z" />
      <path
         style="stroke-width:0.84285003"
         inkscape:connector-curvature="0"
         id="path3672"
         transform="matrix(0,-1.3585,1.3585,0,228.56,134.07)"
         d="m 42,20.5 a 2,2 0 1 1 -4,0 2,2 0 1 1 4,0 z" />
      <path
         style="stroke-width:0.84285003"
         inkscape:connector-curvature="0"
         id="path3674"
         transform="matrix(0,-1.3585,1.3585,0,172.71,192.56)"
         d="m 42,20.5 a 2,2 0 1 1 -4,0 2,2 0 1 1 4,0 z" />
      <path
         style="stroke-width:0.84285003"
         inkscape:connector-curvature="0"
         id="path3676"
         transform="matrix(0,-1.3585,1.3585,0,201.34,162.36)"
         d="m 42,20.5 a 2,2 0 1 1 -4,0 2,2 0 1 1 4,0 z" />
      <path
         style="stroke-width:0.84285003"
         inkscape:connector-curvature="0"
         id="path3678"
         transform="matrix(0,-1.3585,1.3585,0,133.98,233.07)"
         d="m 42,20.5 a 2,2 0 1 1 -4,0 2,2 0 1 1 4,0 z" />
      <path
         style="stroke-width:0.84285003"
         inkscape:connector-curvature="0"
         id="path3680"
         transform="matrix(0,-1.3585,1.3585,0,76.367,293.68)"
         d="m 42,20.5 a 2,2 0 1 1 -4,0 2,2 0 1 1 4,0 z" />
      <path
         style="stroke-width:0.84285003"
         inkscape:connector-curvature="0"
         id="path3682"
         transform="matrix(0,-1.3585,1.3585,0,106.41,262.41)"
         d="m 42,20.5 a 2,2 0 1 1 -4,0 2,2 0 1 1 4,0 z" />
    </g>
    <circle
       style="opacity:1;vector-effect:none;fill:#bababa;fill-opacity:1;stroke:none;stroke-width:0.9250648;stroke-linecap:butt;stroke-linejoin:miter;stroke-miterlimit:4;stroke-dasharray:none;stroke-dashoffset:0;stroke-opacity:1"
       id="path2847-9-2"
       cx="11.068787"
       cy="283.73761"
       r="7.1450496" />
    <text
       xml:space="preserve"
       style="font-style:normal;font-variant:normal;font-weight:normal;font-stretch:condensed;font-size:4.23333311px;line-height:1.25;font-family:Girassol;-inkscape-font-specification:'Girassol, Condensed';font-variant-ligatures:normal;font-variant-caps:normal;font-variant-numeric:normal;font-feature-settings:normal;text-align:start;letter-spacing:0px;word-spacing:0px;writing-mode:lr-tb;text-anchor:start;fill:#000000;fill-opacity:1;stroke:none;stroke-width:0.26458332"
       x="0.12070867"
       y="273.80414"
       id="text1171-9-5-3-8"><tspan
         sodipodi:role="line"
         id="tspan1169-7-3-1-9"
         x="0.12070867"
         y="273.80414"
         style="stroke-width:0.26458332">Penalización</tspan></text>
    <text
       xml:space="preserve"
       style="font-style:normal;font-variant:normal;font-weight:normal;font-stretch:condensed;font-size:4.23333311px;line-height:1.25;font-family:Girassol;-inkscape-font-specification:'Girassol, Condensed';font-variant-ligatures:normal;font-variant-caps:normal;font-variant-numeric:normal;font-feature-settings:normal;text-align:start;letter-spacing:0px;word-spacing:0px;writing-mode:lr-tb;text-anchor:start;fill:#000000;fill-opacity:1;stroke:none;stroke-width:0.26458332"
       x="0.11984095"
       y="296.5238"
       id="text1171-9-5-3-8-1"><tspan
         sodipodi:role="line"
         id="tspan1169-7-3-1-9-1"
         x="0.11984095"
         y="296.5238"
         style="stroke-width:0.26458332">Protecciones</tspan></text>
  </g>
</svg>
