<?xml version="1.0" encoding="UTF-8" standalone="no"?>
<!-- Created with Inkscape (http://www.inkscape.org/) -->

<svg
   xmlns:dc="http://purl.org/dc/elements/1.1/"
   xmlns:cc="http://creativecommons.org/ns#"
   xmlns:rdf="http://www.w3.org/1999/02/22-rdf-syntax-ns#"
   xmlns:svg="http://www.w3.org/2000/svg"
   xmlns="http://www.w3.org/2000/svg"
   xmlns:sodipodi="http://sodipodi.sourceforge.net/DTD/sodipodi-0.dtd"
   xmlns:inkscape="http://www.inkscape.org/namespaces/inkscape"
   width="26mm"
   height="9mm"
   viewBox="0 0 26 9"
   version="1.1"
   id="svg963"
   inkscape:version="0.92.5 (2060ec1f9f, 2020-04-08)"
   sodipodi:docname="repetir_chat.svg">
  <defs
     id="defs957" />
  <sodipodi:namedview
     id="base"
     pagecolor="#ffffff"
     bordercolor="#666666"
     borderopacity="1.0"
     inkscape:pageopacity="0.0"
     inkscape:pageshadow="2"
     inkscape:zoom="5.508316"
     inkscape:cx="50.45822"
     inkscape:cy="-12.247284"
     inkscape:document-units="mm"
     inkscape:current-layer="layer1"
     showgrid="false"
     inkscape:window-width="1920"
     inkscape:window-height="1022"
     inkscape:window-x="0"
     inkscape:window-y="0"
     inkscape:window-maximized="1" />
  <metadata
     id="metadata960">
    <rdf:RDF>
      <cc:Work
         rdf:about="">
        <dc:format>image/svg+xml</dc:format>
        <dc:type
           rdf:resource="http://purl.org/dc/dcmitype/StillImage" />
        <dc:title></dc:title>
      </cc:Work>
    </rdf:RDF>
  </metadata>
  <g
     inkscape:label="Capa 1"
     inkscape:groupmode="layer"
     id="layer1"
     transform="translate(0,-288)">
    <flowRoot
       xml:space="preserve"
       id="flowRoot849"
       style="font-style:normal;font-weight:normal;font-size:40px;line-height:1.25;font-family:sans-serif;letter-spacing:0px;word-spacing:0px;fill:#000000;fill-opacity:1;stroke:none"
       transform="matrix(0.26458333,0,0,0.26458333,0,277)"><flowRegion
         id="flowRegion851"><rect
           id="rect853"
           width="14.523495"
           height="47.927532"
           x="1.0892621"
           y="15.499591" /></flowRegion><flowPara
         id="flowPara855">ยก</flowPara></flowRoot>    <path
       id="path852"
       d="m 25.466664,293.52712 c 0.266218,-0.79486 -0.252559,-1.60228 -1.329945,-2.29972 0.131317,0.2034 0.203039,0.41073 0.215257,0.61833 0.0084,0.14313 -0.01102,0.2859 -0.05721,0.42714 -0.138844,0.42367 -0.516278,0.83381 -1.097706,1.19984 -1.536008,0.9669 -4.483638,1.64383 -8.401529,1.57472 l -0.09516,-0.79552 -3.417552,0.8282 3.703583,1.56377 -0.09977,-0.83413 c 0.233129,0.033 0.469979,0.0629 0.71184,0.0878 4.842541,0.50025 9.263907,-0.56619 9.86818,-2.37041 l 1.2e-5,-3e-5 z m -1.689002,-1.30541 c 0.03978,-0.12182 0.05607,-0.24424 0.04888,-0.36642 -0.02869,-0.48718 -0.429949,-0.97861 -1.293194,-1.42648 -1.286024,-0.50214 -2.914262,-0.8864 -4.742985,-1.07532 -0.442058,-0.0456 -0.874791,-0.0689 -1.307283,-0.0892 3.662635,0.607 6.122786,2.1057 5.635802,3.55972 -0.178581,0.5332 -0.732142,0.99192 -1.549389,1.35098 0.940006,-0.24629 1.692393,-0.55485 2.23339,-0.89543 0.527787,-0.33223 0.855963,-0.69233 0.974886,-1.05783 z"
       inkscape:connector-curvature="0"
       style="fill:#169e09;fill-opacity:1;stroke-width:0.02096495" />
    <path
       id="path852-6"
       d="m 0.43572263,291.43149 c -0.266218,0.79486 0.252559,1.60228 1.32994497,2.29972 -0.131317,-0.2034 -0.203039,-0.41073 -0.215257,-0.61833 -0.0084,-0.14313 0.01102,-0.2859 0.05721,-0.42714 0.138844,-0.42367 0.516278,-0.83381 1.097706,-1.19984 1.536008,-0.9669 4.483638,-1.64383 8.4015284,-1.57472 l 0.09516,0.79552 3.417552,-0.8282 -3.703583,-1.56377 0.09977,0.83413 c -0.233129,-0.033 -0.469979,-0.0629 -0.71184,-0.0878 -4.8425404,-0.50025 -9.2639064,0.56619 -9.86817937,2.37041 l -1.2e-5,3e-5 z m 1.68900197,1.30541 c -0.03978,0.12182 -0.05607,0.24424 -0.04888,0.36642 0.02869,0.48718 0.429949,0.97861 1.293194,1.42648 1.286024,0.50214 2.914262,0.8864 4.742985,1.07532 0.442058,0.0456 0.874791,0.0689 1.307283,0.0892 -3.662635,-0.607 -6.122786,-2.1057 -5.635802,-3.55972 0.178581,-0.5332 0.732142,-0.99192 1.549389,-1.35098 -0.940006,0.24629 -1.692393,0.55485 -2.23339,0.89543 -0.527787,0.33223 -0.855963,0.69233 -0.974886,1.05783 z"
       inkscape:connector-curvature="0"
       style="fill:#169e09;fill-opacity:1;stroke-width:0.02096495" />
    <text
       xml:space="preserve"
       style="font-style:normal;font-variant:normal;font-weight:normal;font-stretch:condensed;font-size:4.93888903px;line-height:1.25;font-family:Girassol;-inkscape-font-specification:'Girassol, Condensed';font-variant-ligatures:normal;font-variant-caps:normal;font-variant-numeric:normal;font-feature-settings:normal;text-align:start;letter-spacing:0px;word-spacing:0px;writing-mode:lr-tb;text-anchor:start;fill:#000000;fill-opacity:1;stroke:none;stroke-width:0.26458332"
       x="5.4277778"
       y="294.21408"
       id="text881"><tspan
         sodipodi:role="line"
         id="tspan879"
         x="5.4277778"
         y="294.21408"
         style="font-style:normal;font-variant:normal;font-weight:normal;font-stretch:condensed;font-size:4.93888903px;font-family:Girassol;-inkscape-font-specification:'Girassol, Condensed';font-variant-ligatures:normal;font-variant-caps:normal;font-variant-numeric:normal;font-feature-settings:normal;text-align:start;writing-mode:lr-tb;text-anchor:start;stroke-width:0.26458332">PROEZA</tspan></text>
  </g>
</svg>
