<?xml version="1.0" encoding="UTF-8" standalone="no"?>
<!-- Created with Inkscape (http://www.inkscape.org/) -->

<svg
   xmlns:dc="http://purl.org/dc/elements/1.1/"
   xmlns:cc="http://creativecommons.org/ns#"
   xmlns:rdf="http://www.w3.org/1999/02/22-rdf-syntax-ns#"
   xmlns:svg="http://www.w3.org/2000/svg"
   xmlns="http://www.w3.org/2000/svg"
   xmlns:sodipodi="http://sodipodi.sourceforge.net/DTD/sodipodi-0.dtd"
   xmlns:inkscape="http://www.inkscape.org/namespaces/inkscape"
   width="300"
   height="300"
   viewBox="0 0 79.374998 79.375005"
   version="1.1"
   id="svg1174"
   inkscape:version="0.92.5 (2060ec1f9f, 2020-04-08)"
   sodipodi:docname="objeto-Bg.svg">
  <defs
     id="defs1168" />
  <sodipodi:namedview
     id="base"
     pagecolor="#ffffff"
     bordercolor="#666666"
     borderopacity="1.0"
     inkscape:pageopacity="0.0"
     inkscape:pageshadow="2"
     inkscape:zoom="3.0392164"
     inkscape:cx="118.89714"
     inkscape:cy="266.79376"
     inkscape:document-units="mm"
     inkscape:current-layer="layer1"
     showgrid="false"
     units="px"
     inkscape:window-width="1920"
     inkscape:window-height="1022"
     inkscape:window-x="0"
     inkscape:window-y="0"
     inkscape:window-maximized="1"
     borderlayer="true" />
  <metadata
     id="metadata1171">
    <rdf:RDF>
      <cc:Work
         rdf:about="">
        <dc:format>image/svg+xml</dc:format>
        <dc:type
           rdf:resource="http://purl.org/dc/dcmitype/StillImage" />
        <dc:title />
      </cc:Work>
    </rdf:RDF>
  </metadata>
  <g
     inkscape:label="Capa 1"
     inkscape:groupmode="layer"
     id="layer1"
     transform="translate(0,-217.62501)">
    <path
       style="opacity:1;vector-effect:none;fill:#ffffff;fill-opacity:1;stroke:#000000;stroke-width:0.11372695;stroke-linecap:butt;stroke-linejoin:miter;stroke-miterlimit:4;stroke-dasharray:none;stroke-dashoffset:0;stroke-opacity:1"
       d="m 34.1142,220.21696 2.019289,-1.33014 h 2.837547 5.675093 11.350188 22.700375 v 1.93599 1.93598 1.93598 l -1.191991,0.81701 -1.645554,1.11897 H 73.021599 67.346503 55.996317 33.295942 v -1.93598 -1.93598 -1.93598 z"
       id="rect6954-0"
       inkscape:connector-curvature="0"
       sodipodi:nodetypes="ccccccccccccccccccc" />
    <path
       style="opacity:1;vector-effect:none;fill:#5b5b5b;fill-opacity:1;stroke:#000000;stroke-width:0.322;stroke-linecap:butt;stroke-linejoin:miter;stroke-miterlimit:4;stroke-dasharray:none;stroke-dashoffset:0;stroke-opacity:1"
       d="m 34.501733,220.43747 1.987006,-1.20745 h 2.792181 5.584361 11.168723 22.337446 v 1.75741 1.75742 1.75741 l -1.172935,0.74166 -1.619247,1.01576 H 72.787091 67.202726 56.034004 33.696558 v -1.75742 -1.75741 -1.75742 z"
       id="rect6954"
       inkscape:connector-curvature="0"
       sodipodi:nodetypes="ccccccccccccccccccc" />
    <g
       transform="matrix(0.15718813,0,0,0.16111652,-93.158064,216.19544)"
       id="g7020">
      <g
         transform="translate(317.57703,-261.72739)"
         id="g6952">
        <path
           style="opacity:1;vector-effect:none;fill:#ffffff;fill-opacity:1;stroke:#000000;stroke-width:1.04844248;stroke-linecap:butt;stroke-linejoin:miter;stroke-miterlimit:4;stroke-dasharray:none;stroke-dashoffset:0;stroke-opacity:1"
           d="m 301.84321,292.31138 13.48771,-7.84739 h 22.40383 22.40383 22.40384 l 11.87787,11.77109 h 30.82463 43.08429 l -0.27863,29.54877 v 41.88037 41.8804 41.88039 l -21.89044,0.0701 -21.89045,0.07 -26.62712,-0.49045 -15.76058,-11.14051 -23.28359,-0.49046 -21.89045,0.07 -21.89042,0.0701 -13.25294,0.07 -8.91613,0.0796 0.27863,-29.62839 v -20.94022 -20.9402 -20.94019 -20.94018 l 0.27863,-29.34813 z"
           id="rect6932-4"
           inkscape:connector-curvature="0"
           sodipodi:nodetypes="cccccccccccccccccccccccccccc" />
        <path
           style="opacity:1;vector-effect:none;fill:#bababa;fill-opacity:1;stroke:#000000;stroke-width:3;stroke-linecap:butt;stroke-linejoin:miter;stroke-miterlimit:4;stroke-dasharray:none;stroke-dashoffset:0;stroke-opacity:1"
           d="m 305.55429,295.60822 12.90221,-7.46294 h 21.43129 21.43129 21.43129 l 11.36226,11.19441 h 29.48655 41.21402 l -0.26653,28.10116 v 39.82863 39.82864 39.82863 l -20.94018,0.0666 -20.94019,0.0666 -25.47125,-0.46644 -15.07644,-10.59471 -22.27285,-0.46644 -20.94019,0.0666 -20.94018,0.0666 -12.67763,0.0666 -8.52908,0.0757 0.26653,-28.17687 v -19.91431 -19.91432 -19.91432 -19.91431 l 0.26653,-27.91033 z"
           id="rect6932"
           inkscape:connector-curvature="0"
           sodipodi:nodetypes="cccccccccccccccccccccccccccc" />
      </g>
    </g>
    <text
       xml:space="preserve"
       style="font-style:normal;font-variant:normal;font-weight:normal;font-stretch:normal;font-size:4.93588543px;line-height:1.25;font-family:Bangers;-inkscape-font-specification:'Bangers, Normal';font-variant-ligatures:normal;font-variant-caps:normal;font-variant-numeric:normal;font-feature-settings:normal;text-align:start;letter-spacing:0px;word-spacing:0px;writing-mode:lr-tb;text-anchor:start;fill:#050809;fill-opacity:1;stroke:none;stroke-width:0.30849594"
       x="29.195126"
       y="275.99417"
       id="text1497"
       transform="scale(1.1659688,0.85765588)"><tspan
         sodipodi:role="line"
         id="tspan1495"
         x="29.195126"
         y="275.99417"
         style="font-style:normal;font-variant:normal;font-weight:normal;font-stretch:condensed;font-size:4.93571377px;font-family:Girassol;-inkscape-font-specification:'Girassol, Condensed';font-variant-ligatures:normal;font-variant-caps:normal;font-variant-numeric:normal;font-feature-settings:normal;text-align:start;writing-mode:lr-tb;text-anchor:start;fill:#050809;fill-opacity:1;stroke-width:0.30849594">Cantidad</tspan></text>
    <ellipse
       style="opacity:1;vector-effect:none;fill:#ffffff;fill-opacity:1;stroke:none;stroke-width:0.81364417;stroke-linecap:butt;stroke-linejoin:miter;stroke-miterlimit:4;stroke-dasharray:none;stroke-dashoffset:0;stroke-opacity:1"
       id="path2847-9-7-9"
       cx="68.033188"
       cy="235.34206"
       rx="8.6932154"
       ry="4.5431261" />
    <path
       style="opacity:1;vector-effect:none;fill:#ffffff;fill-opacity:1;stroke:#000000;stroke-width:0.27760053;stroke-linecap:butt;stroke-linejoin:miter;stroke-miterlimit:4;stroke-dasharray:none;stroke-dashoffset:0;stroke-opacity:1"
       d="m 60.488865,231.29236 2.071388,-1.01585 h 4.787477 5.075714 5.075706 v 2.36469 2.3647 2.36469 l -2.565193,1.20373 -2.366399,1.16098 h -4.931599 -4.931587 -4.931599 v -2.36471 -2.36469 -2.3647 z"
       id="rect6587-81-3-7"
       inkscape:connector-curvature="0"
       sodipodi:nodetypes="ccscccccccccccccc" />
    <path
       style="opacity:1;vector-effect:none;fill:#ffffff;fill-opacity:1;stroke:#000000;stroke-width:0.79;stroke-linecap:butt;stroke-linejoin:miter;stroke-miterlimit:4;stroke-dasharray:none;stroke-dashoffset:0;stroke-opacity:1"
       d="m 60.96906,231.90759 1.919838,-0.85102 h 4.437196 4.704342 4.704341 v 1.98099 1.98099 1.98098 l -2.377509,1.0084 -2.193258,0.97259 h -4.570771 -4.570767 -4.570771 v -1.98099 -1.98098 -1.98099 z"
       id="rect6587-1-0-3-7"
       inkscape:connector-curvature="0"
       sodipodi:nodetypes="ccscccccccccccccc" />
  </g>
</svg>
