<?xml version="1.0" encoding="UTF-8" standalone="no"?>
<!-- Created with Inkscape (http://www.inkscape.org/) -->

<svg
   xmlns:dc="http://purl.org/dc/elements/1.1/"
   xmlns:cc="http://creativecommons.org/ns#"
   xmlns:rdf="http://www.w3.org/1999/02/22-rdf-syntax-ns#"
   xmlns:svg="http://www.w3.org/2000/svg"
   xmlns="http://www.w3.org/2000/svg"
   xmlns:sodipodi="http://sodipodi.sourceforge.net/DTD/sodipodi-0.dtd"
   xmlns:inkscape="http://www.inkscape.org/namespaces/inkscape"
   width="23mm"
   height="27mm"
   viewBox="0 0 23 27"
   version="1.1"
   id="svg963"
   inkscape:version="0.92.5 (2060ec1f9f, 2020-04-08)"
   sodipodi:docname="penalizador.svg">
  <defs
     id="defs957" />
  <sodipodi:namedview
     id="base"
     pagecolor="#ffffff"
     bordercolor="#666666"
     borderopacity="1.0"
     inkscape:pageopacity="0.0"
     inkscape:pageshadow="2"
     inkscape:zoom="3.2483421"
     inkscape:cx="-15.742978"
     inkscape:cy="62.863956"
     inkscape:document-units="mm"
     inkscape:current-layer="layer1"
     showgrid="false"
     inkscape:window-width="1920"
     inkscape:window-height="1022"
     inkscape:window-x="0"
     inkscape:window-y="0"
     inkscape:window-maximized="1" />
  <metadata
     id="metadata960">
    <rdf:RDF>
      <cc:Work
         rdf:about="">
        <dc:format>image/svg+xml</dc:format>
        <dc:type
           rdf:resource="http://purl.org/dc/dcmitype/StillImage" />
        <dc:title />
      </cc:Work>
    </rdf:RDF>
  </metadata>
  <g
     inkscape:label="Capa 1"
     inkscape:groupmode="layer"
     id="layer1"
     transform="translate(0,-270)">
    <circle
       style="opacity:1;vector-effect:none;fill:#bababa;fill-opacity:1;stroke:none;stroke-width:0.96200895;stroke-linecap:butt;stroke-linejoin:miter;stroke-miterlimit:4;stroke-dasharray:none;stroke-dashoffset:0;stroke-opacity:1"
       id="path2847-9-2-5"
       cx="11.04979"
       cy="283.78287"
       r="7.4303999" />
    <g
       id="g830-0-3-5"
       transform="matrix(-1.3283385e-5,0.00127276,0.00127276,1.3283385e-5,3.188773,275.49598)"
       style="fill:#50511c;stroke:none;fill-opacity:1">
      <path
         id="path826-9-8-9"
         d="m 5925,12625 c -248,-21 -380,-39 -378,-51 1,-7 -56,-18 -148,-29 -83,-9 -190,-25 -237,-35 -244,-53 -454,-105 -602,-151 -91,-28 -210,-64 -264,-81 -465,-138 -1038,-415 -1493,-719 -234,-157 -585,-429 -773,-600 -215,-196 -538,-518 -659,-659 C 1087,9970 839,9615 679,9305 602,9157 412,8742 355,8600 248,8329 123,7882 66,7570 16,7293 5,7179 5,6920 c 0,-246 7,-324 27,-318 19,7 37,72 78,278 21,107 43,218 48,245 8,39 9,25 4,-65 -4,-63 -7,-219 -7,-347 0,-255 6,-282 45,-216 17,27 29,79 46,188 l 23,150 -6,-191 c -3,-129 -1,-221 7,-283 13,-91 13,-92 26,-61 10,23 34,227 34,286 0,2 7,4 15,4 25,0 64,152 126,491 32,179 72,384 89,455 35,146 79,298 85,292 3,-2 -2,-39 -10,-82 -18,-92 -17,-86 -5,-86 6,0 10,8 10,18 1,12 5,9 16,-11 8,-15 19,-25 25,-22 5,4 25,37 44,73 20,40 34,59 35,47 0,-12 4,-25 9,-30 5,-6 5,-59 0,-120 -11,-153 4,-275 33,-275 13,0 42,71 108,268 67,195 71,204 80,177 5,-14 15,-1 40,56 75,165 285,573 365,707 101,171 155,249 427,613 292,390 419,544 672,809 125,131 146,145 66,45 -143,-181 -214,-315 -166,-315 18,0 124,82 321,249 593,504 995,778 1507,1025 559,271 1128,428 1798,498 168,17 793,17 960,0 325,-34 662,-97 926,-172 1721,-488 3064,-1775 3618,-3467 119,-365 196,-746 238,-1178 16,-171 16,-682 0,-860 -63,-686 -245,-1327 -557,-1960 C 10792,2995 10163,2277 9375,1745 8492,1150 7504,846 6350,814 5433,788 4565,988 3680,1430 c -141,70 -106,38 50,-46 651,-351 1351,-559 2140,-636 180,-17 819,-17 1000,0 1357,132 2511,667 3474,1612 103,102 234,237 289,300 137,156 146,164 71,60 -18,-25 -32,-53 -31,-62 3,-23 -225,-278 -400,-449 C 9884,1831 9467,1522 9010,1277 8762,1144 8305,973 7949,881 7517,769 7190,724 6630,700 c -140,-6 -292,-15 -337,-21 -203,-24 -781,41 -1163,132 -885,211 -1709,627 -2425,1225 -119,100 -403,375 -586,569 -147,155 -313,363 -449,563 -35,51 -65,90 -68,87 -15,-15 245,-368 409,-556 46,-53 119,-137 162,-187 110,-127 430,-438 572,-558 576,-480 1211,-831 1915,-1058 206,-67 518,-145 715,-181 77,-13 163,-29 190,-34 30,-5 39,-9 23,-10 -53,-2 -386,60 -586,110 -385,95 -769,234 -1117,405 -851,418 -1542,989 -2093,1732 -58,78 -107,140 -110,137 -6,-5 68,-110 177,-250 496,-637 1112,-1160 1806,-1532 882,-472 1890,-706 2925,-679 135,3 283,8 330,11 l 85,4 -88,-14 c -162,-25 -410,-38 -687,-38 -620,1 -1087,74 -1620,253 -488,164 -1043,444 -1460,736 -1013,709 -1779,1701 -2169,2807 -65,186 -84,177 -22,-10 311,-944 925,-1853 1713,-2538 43,-37 78,-70 78,-72 0,-3 -26,16 -57,43 -353,296 -662,622 -938,989 -226,300 -383,560 -602,995 -85,168 -161,312 -169,320 -12,12 -14,12 -14,-5 0,-24 19,-87 54,-179 14,-37 24,-72 21,-77 -17,-27 300,-594 496,-886 353,-526 832,-1029 1354,-1423 146,-109 419,-290 580,-384 164,-95 184,-110 70,-50 -272,141 -644,395 -930,634 -449,374 -826,792 -1143,1268 -116,172 -235,372 -228,379 8,8 -54,126 -79,148 -11,11 -36,56 -54,100 -18,44 -57,125 -86,180 -107,200 -264,636 -350,969 -110,428 -165,790 -185,1231 -14,292 -17,314 -18,135 -5,-434 80,-1004 223,-1501 165,-571 420,-1128 741,-1616 52,-79 92,-149 89,-154 -12,-18 130,-212 375,-513 17,-21 4,-14 -40,23 -74,61 -87,54 -41,-22 l 31,-52 -46,50 c -76,81 -272,329 -376,475 -323,454 -602,985 -785,1495 -28,77 -56,154 -62,170 l -11,30 4,-35 c 2,-19 32,-114 66,-210 307,-859 797,-1636 1440,-2281 204,-204 313,-302 540,-484 246,-197 366,-285 570,-420 863,-573 1830,-901 2872,-975 216,-15 656,-12 879,6 751,60 1493,262 2168,590 577,280 1163,678 1588,1078 57,53 105,96 107,96 17,0 -37,-70 -102,-131 C 10303,1358 9716,955 9187,700 8343,292 7470,89 6510,75 5535,62 4610,266 3726,690 2825,1122 2045,1762 1437,2570 763,3465 355,4467 220,5560 c -29,238 -51,380 -60,385 -30,18 -16,-313 25,-588 C 340,4302 761,3306 1404,2470 2040,1643 2891,976 3850,552 4958,62 6130,-95 7360,81 c 721,103 1501,368 2144,729 801,448 1448,1019 2014,1775 431,575 781,1295 987,2030 155,554 223,1053 239,1755 1,74 2,-25 0,-220 -1,-237 -8,-407 -18,-510 -108,-1043 -415,-1944 -957,-2809 -60,-96 -108,-176 -105,-178 7,-8 73,81 154,207 491,769 804,1643 926,2580 48,370 65,930 37,1265 -60,737 -217,1389 -481,2000 -28,66 -65,160 -82,209 -154,458 -537,1096 -958,1596 -147,174 -459,487 -625,624 -287,238 -632,480 -835,585 -416,214 -583,292 -850,396 -74,29 -207,82 -295,117 -479,195 -1020,322 -1635,384 -230,23 -864,28 -1095,9 z m -1790,-502 c -685,-272 -1356,-675 -1885,-1132 -142,-123 -401,-375 -540,-526 -91,-99 -89,-91 9,30 261,322 768,749 1256,1057 338,214 800,451 1080,554 90,33 156,47 80,17 z m -814,-577 c -7,-8 -53,-39 -104,-69 -389,-232 -858,-607 -1152,-919 -107,-114 -412,-408 -371,-358 15,19 88,100 161,180 391,426 844,798 1349,1107 66,40 122,73 124,73 3,0 -1,-6 -7,-14 z M 1150,9495 c 0,-2 -18,-34 -40,-70 -51,-83 -137,-254 -209,-416 -31,-69 -66,-135 -77,-147 -39,-42 -261,-553 -324,-747 -21,-67 -40,-103 -40,-78 0,38 140,422 225,619 101,234 264,541 421,797 25,40 44,59 44,42 z M 714,8543 C 632,8347 496,7938 447,7740 410,7590 365,7344 331,7112 c -11,-73 -24,-139 -29,-145 -5,-7 -12,-21 -15,-32 -12,-41 5,96 39,316 37,245 84,449 163,710 74,248 249,709 258,682 2,-6 -13,-51 -33,-100 z M 177,7188 c -3,-8 -6,-5 -6,6 -1,11 2,17 5,13 3,-3 4,-12 1,-19 z m 128,-357 c -4,-25 -10,-40 -12,-33 -3,7 -2,39 3,70 5,36 9,48 12,33 2,-13 1,-45 -3,-70 z M 2486,1799 C 3082,1276 3777,879 4530,630 4884,513 5287,424 5703,370 c 140,-18 197,-29 312,-59 57,-15 -83,-6 -291,19 -1347,163 -2586,767 -3509,1711 l -120,123 136,-130 c 74,-72 189,-177 255,-235 z M 5663,663 c -7,-2 -21,-2 -30,0 -10,3 -4,5 12,5 17,0 24,-2 18,-5 z"
         inkscape:connector-curvature="0"
         style="fill:#50511c;fill-opacity:1" />
      <path
         id="path828-6-5-8"
         d="M 11489,2413 C 11061,1869 10568,1414 9995,1035 9197,506 8303,167 7380,41 7180,13 7152,8 7168,3 c 20,-8 331,36 527,73 949,183 1837,577 2620,1165 349,261 677,566 963,893 128,147 276,335 269,342 -2,3 -29,-26 -58,-63 z"
         inkscape:connector-curvature="0"
         style="fill:#50511c;fill-opacity:1" />
    </g>
    <text
       xml:space="preserve"
       style="font-style:normal;font-variant:normal;font-weight:normal;font-stretch:condensed;font-size:4.23333311px;line-height:1.25;font-family:Girassol;-inkscape-font-specification:'Girassol, Condensed';font-variant-ligatures:normal;font-variant-caps:normal;font-variant-numeric:normal;font-feature-settings:normal;text-align:start;letter-spacing:0px;word-spacing:0px;writing-mode:lr-tb;text-anchor:start;fill:#000000;fill-opacity:1;stroke:none;stroke-width:0.26458332"
       x="0.12070867"
       y="273.80414"
       id="text1171-9-5-3-8"><tspan
         sodipodi:role="line"
         id="tspan1169-7-3-1-9"
         x="0.12070867"
         y="273.80414"
         style="stroke-width:0.26458332">Penalización</tspan></text>
    <text
       xml:space="preserve"
       style="font-style:normal;font-variant:normal;font-weight:normal;font-stretch:condensed;font-size:4.23333311px;line-height:1.25;font-family:Girassol;-inkscape-font-specification:'Girassol, Condensed';font-variant-ligatures:normal;font-variant-caps:normal;font-variant-numeric:normal;font-feature-settings:normal;text-align:start;letter-spacing:0px;word-spacing:0px;writing-mode:lr-tb;text-anchor:start;fill:#000000;fill-opacity:1;stroke:none;stroke-width:0.26458332"
       x="0.11984095"
       y="296.5238"
       id="text1171-9-5-3-8-1"><tspan
         sodipodi:role="line"
         id="tspan1169-7-3-1-9-1"
         x="0.11984095"
         y="296.5238"
         style="stroke-width:0.26458332">Protecciones</tspan></text>
  </g>
</svg>
