<?xml version="1.0" encoding="UTF-8" standalone="no"?>
<!-- Created with Inkscape (http://www.inkscape.org/) -->

<svg
   xmlns:dc="http://purl.org/dc/elements/1.1/"
   xmlns:cc="http://creativecommons.org/ns#"
   xmlns:rdf="http://www.w3.org/1999/02/22-rdf-syntax-ns#"
   xmlns:svg="http://www.w3.org/2000/svg"
   xmlns="http://www.w3.org/2000/svg"
   xmlns:sodipodi="http://sodipodi.sourceforge.net/DTD/sodipodi-0.dtd"
   xmlns:inkscape="http://www.inkscape.org/namespaces/inkscape"
   width="24mm"
   height="20mm"
   viewBox="0 0 24 20"
   version="1.1"
   id="svg963"
   inkscape:version="0.92.5 (2060ec1f9f, 2020-04-08)"
   sodipodi:docname="total_daño_chat.svg">
  <defs
     id="defs957" />
  <sodipodi:namedview
     id="base"
     pagecolor="#ffffff"
     bordercolor="#666666"
     borderopacity="1.0"
     inkscape:pageopacity="0.0"
     inkscape:pageshadow="2"
     inkscape:zoom="5.508316"
     inkscape:cx="80.35335"
     inkscape:cy="1.0062586"
     inkscape:document-units="mm"
     inkscape:current-layer="layer1"
     showgrid="false"
     inkscape:window-width="1920"
     inkscape:window-height="1022"
     inkscape:window-x="0"
     inkscape:window-y="0"
     inkscape:window-maximized="1" />
  <metadata
     id="metadata960">
    <rdf:RDF>
      <cc:Work
         rdf:about="">
        <dc:format>image/svg+xml</dc:format>
        <dc:type
           rdf:resource="http://purl.org/dc/dcmitype/StillImage" />
        <dc:title></dc:title>
      </cc:Work>
    </rdf:RDF>
  </metadata>
  <g
     inkscape:label="Capa 1"
     inkscape:groupmode="layer"
     id="layer1"
     transform="translate(0,-277)">
    <path
       class="fil3"
       d="m 9.7442448,296.39258 c 0.2403292,-0.0631 0.1201646,-0.37884 0.4205762,-0.44199 0.180247,-0.0631 0.600823,-0.37885 0.600823,-0.56829 0,-0.18942 0.781071,-0.63144 0.360495,-0.12629 -0.180247,0.25258 0.420576,-0.31571 0.420576,-0.31571 0.180248,-0.18944 0.720989,-0.69456 0.901237,-0.75771 0.300411,-0.0632 0.300411,-0.69457 1.201647,-0.69457 0.06008,0 0.841153,-0.25257 0.781071,-0.31572 -0.24033,-0.18943 -0.360495,-0.0631 0.180246,-0.18943 0.24033,-0.0631 0.360494,-0.37884 0.720989,-0.442 0.540742,-0.12628 0.540742,-0.25257 1.201648,-0.31571 0.480658,0 -0.420577,-0.37886 -0.180248,-0.44199 0.180248,-0.0632 1.081483,0.37884 0.660906,-0.12629 -0.120164,-0.18944 0.480659,-0.0632 0.841154,-0.37886 0.420576,-0.442 0.781071,-0.18944 0.781071,-0.56828 0,-0.1263 0.360494,-0.0632 0.660906,-0.37887 0.180246,-0.18942 0.540741,-0.31571 0.180246,-0.37885 -0.240329,-0.0631 0.360495,-0.25257 0.540742,-0.50515 0.120165,-0.12627 0.300412,-0.12627 0.540741,-0.442 0.120165,-0.25256 0.540742,-0.69457 0.781071,-0.69457 0.120164,0 0.901236,-0.82085 0.901236,-1.01029 0,-0.25257 1.381895,-1.45228 1.622224,-1.6417 -0.360494,0.12629 -0.300413,-0.0631 -0.78107,0.44199 -0.360495,0.37886 -0.781072,0.75772 -1.261731,0.884 -0.180247,0.0632 -0.901236,1.19971 -1.502059,1.19971 -0.120165,0 -0.660906,0.37887 -0.540741,0.442 0.720988,0.1263 0.06008,0 -0.480659,0.44202 -0.180248,0.18941 -0.420577,0.12628 -0.841154,0.56827 -0.240329,0.25258 -1.141565,0.63143 -1.50206,1.01029 -0.180246,0.18943 0.660906,-0.63143 -0.180246,0 -0.600824,0.50514 -0.841153,0.69457 -1.502059,1.01029 -0.120165,0.0631 -0.600824,0.25257 -0.540742,0.50513 0,0.12629 -0.300411,0 -0.600823,0.31573 -0.480659,0.50513 -1.141565,0.88399 -1.742389,1.1997 -0.480659,0.25258 -0.720988,0.63144 -1.141565,0.94714 -0.180247,0.12628 -1.3218126,1.19972 -1.3218126,1.45229 0,0.12629 -0.1201646,0.37886 -0.1201646,0.44201 z m -4.0856014,-0.88399 c 0.060083,-0.18944 0.1802471,-0.12629 0.2403298,-0.44199 0,-0.1263 0.4205763,-0.82086 0.4806589,-1.01029 0.060081,-0.31572 0.6008235,-0.50515 0.8411527,-0.69458 0.3004123,-0.25256 0.2403298,-0.12628 -0.1201646,-0.12628 -0.060083,0 1.2016477,-1.07344 1.3218123,-1.01029 0.2403292,0.18943 1.3218123,-0.69457 1.3218123,-0.69457 -0.5407415,-0.0631 -0.6609061,0.31571 0.1802466,-0.44201 0.6008236,-0.56827 1.4419766,-0.37884 1.9226366,-0.82085 0.240329,-0.18943 0.360493,-0.31571 0.600824,-0.12628 0,0 -0.781071,0.56829 -0.720989,0.56829 0.06008,-0.0632 1.862554,-0.69458 1.141564,-0.69458 -0.240329,0 0.420577,-0.18943 0.540742,-0.31571 0.600824,-0.69458 0.360495,-0.37885 0.961318,-0.75772 1.201648,-0.69456 1.261731,-0.31572 2.102883,-0.63143 0.480658,-0.18943 0.240329,0 0.600824,-0.12629 0.420576,-0.12628 0.300411,-0.0632 0.720988,0.25257 0.600823,0.44201 -0.06008,-0.12628 -0.120164,-0.37885 -0.06008,-0.12629 -0.961319,-0.82085 0.120164,-0.25258 0.420577,0.25258 0.720989,-0.0631 0.961318,-0.12627 -0.240329,-0.12629 -0.240329,-0.0631 -0.420576,-0.12629 0,0 0.480658,-0.0632 0.720987,-0.18943 0.420577,-0.25257 0.961319,-0.56828 1.381896,-0.75771 0.180247,-0.0632 0.600823,-0.63143 1.081482,-0.82085 0.120165,-0.0632 0.901236,-0.44201 0.961319,-0.63144 0.180246,-0.44199 1.0214,-1.38915 0.961317,-1.38915 0,0 -0.600823,0.37887 -0.420577,0.1263 0.420577,-0.44201 0.180247,-0.56829 0.540741,-0.94716 0,0 0.420578,-0.63142 0.180247,-0.37884 -0.06008,0.12628 -0.480657,0.37884 -0.540741,0.56828 0,0.0632 -0.420576,0.63142 -0.480658,0.63142 -0.180247,0 -1.982718,0.82086 -2.223048,1.07344 -0.540741,0.56828 -1.502059,0.69457 -2.162965,0.37886 -0.360494,-0.18943 0.300412,0.31571 0.480658,0.37885 0.240329,0.12628 -0.240329,-0.12629 -0.540741,0.0631 -0.180246,0.12629 -0.420576,0.0631 -0.841153,0.50513 -0.240329,0.25258 -1.742389,0.82086 -2.102883,0.94715 -0.240329,0.0631 -0.240329,0.12629 -0.600824,0.18944 -0.660906,0.12629 -0.540741,-0.0632 -1.081482,-0.25258 -0.360495,-0.12628 0.06008,0.0631 0.120165,0.18943 0.180247,0.37886 0.540741,0 -0.300413,0.25257 0,0 -0.841153,0.37885 -0.901235,0.37885 0.06008,0.12629 0.540742,0 0.06008,0.18944 -0.300411,0.12628 -0.360494,0.56828 -0.78107,0.63142 -0.48066,0.0632 -0.901236,1.07343 -1.381895,0.50515 0,0 -0.360494,-0.18943 -0.240329,0.12629 0.180247,0.44199 -0.120165,0.12627 -0.4806592,0.50513 -0.1201646,0.0631 -0.7209887,0.88402 -0.7209887,0.88402 0.060083,0.37884 -1.0814825,0.37884 -1.5020589,1.32598 -0.1201651,0.31572 -0.8411533,0.94714 -1.0814831,1.45229 -0.1802472,0.442 -0.480659,1.13657 -0.6008236,1.57858 0,0.0631 -0.060083,0.25256 -0.1201645,0.37885 z m -5.40741322,-0.56829 0.0600826,0.0632 c 0.18024718,-0.18943 0.060082,-0.88399 0.30041177,-1.326 0.1201646,-0.18943 0.30041178,-0.884 0.42057635,-0.94714 0.3004118,-0.12628 0.3004118,-0.25257 0.6609062,-0.37886 0.060083,0 -0.3604944,-0.18942 0.3004118,-0.44199 0.6609061,-0.31572 0.6008241,-0.44201 1.3818948,-0.56829 0.7810708,-0.12629 -0.6609061,-0.18944 0.060081,-0.37886 0.3004118,-0.0632 0.8411533,-1.07342 1.2617296,-1.01029 0,0 0.8411535,-0.31571 0.3004119,0 -0.2403292,0.12629 -0.3004119,0.12629 0.1201652,0.0632 0.1802471,0 0.4806583,-0.37887 0.8411527,-0.50515 0,0 0.060083,-0.18942 0.1802472,-0.31571 0.4806589,-0.442 0.1201646,-0.37886 0.7810707,-0.50515 0.060083,0 1.2617303,-0.63142 1.2016478,-0.69457 -0.060083,-0.0631 -0.1802473,-0.18943 -0.1201646,-0.25257 0.2403291,0.25257 0.9012352,0.12628 1.201647,-0.0632 0.3604944,-0.18944 0.7209882,0.31571 1.0214008,0.44199 0.180247,0.0632 -0.06008,-0.0631 -0.120165,-0.18944 -0.06008,-0.18942 -1.0214003,-0.7577 0,-0.50512 0.360494,0.12628 0.480659,-0.44202 1.141565,-0.50515 0.120164,0 0.24033,-0.063 0.480659,-0.063 0.180247,0 1.201647,-0.44201 0.781071,0 -0.420577,0.44198 0.180247,0.063 0.300411,-0.0632 0.961319,-0.88399 0.420577,-0.82085 1.682307,-0.75771 0.360494,0 0.480658,0.12628 0.841153,-0.25256 0.120165,-0.1263 0.961318,-0.31572 0.841153,-0.44201 -0.360494,-0.37885 0.720989,-0.18942 1.081483,-0.31571 0.180247,-0.0631 0.360493,0.0632 0.06008,-0.0631 -0.300412,-0.1263 -0.06008,0.0631 0.420578,-0.25258 0.360494,-0.25257 0.901235,-0.25257 1.201646,-0.63143 0,0 0.300412,-0.18943 0.420577,-0.18943 0,0 0.420577,-0.31572 0.600824,-0.37885 0.360494,-0.12629 0.360494,-0.44201 1.141565,-0.50514 0.06008,0 0.540741,-0.37886 0.180247,0.0631 -0.240329,0.31571 0.240329,0.0632 0.480659,-0.50513 0.120165,-0.18944 0.240329,-0.25258 0.420577,-0.63144 0.180246,-0.50515 0.720988,-0.69457 0.720988,-1.32599 0,-0.50515 0.540741,-1.0103 0.300411,-1.51544 -0.06008,-0.18943 0.360494,-1.32601 0.120165,-1.01028 -0.06008,0.0632 -0.120165,0.37886 -0.360494,0.63142 -0.120164,0.12628 -0.240329,0.69457 -0.78107,0.884 -1.021401,0.37885 -1.261731,1.64172 -1.50206,1.70485 -0.180247,0.0632 -0.180247,0.37887 -0.600823,0.31572 -0.120165,0 -0.901236,0.75772 -0.961319,0.75772 -0.06008,0 -0.600823,0.37884 -0.901235,0.442 -0.240329,0 -0.480658,0.44199 -1.141565,0.50515 -0.24033,0.0632 -1.021401,-0.44202 -0.120166,0.31571 0.06008,0.0632 -0.240329,-0.18943 -0.420575,-0.18943 -0.06008,0 -1.562142,-0.5683 -1.381895,-0.37886 0.180247,0.18942 0.300412,0.442 0.48066,0.56829 -0.240331,-0.18943 -0.600825,0.25257 -0.901237,0.31571 -0.660906,0.12628 -0.78107,0.82086 -1.321812,0.75771 -0.120165,0 -0.480659,0.18943 -0.841153,0.12628 -0.720988,-0.12628 -0.600824,0.63144 -1.081482,0.56829 -0.420577,-0.0632 -0.660907,0.31572 -0.841154,0.12629 -0.06008,-0.0631 -0.7810706,0.18943 -0.9613177,0.442 0,0 -0.9613179,0.18942 -1.0814825,0.25257 h -0.060083 c -1.5621414,0.442 -1.0213999,0.63144 -1.8024706,1.07343 -0.3604943,0.18943 0,0.25258 -0.9613185,0.56828 -0.1802472,0.0631 -0.3004112,0.0631 -0.4806584,0.12629 -0.060083,0.25257 0.6609055,0.0632 -0.6008242,0.37886 -0.4806588,0.12628 -0.3604943,0.82086 -1.0814824,1.07343 -0.4205764,0.12627 -1.1415651,1.26286 -1.3218123,1.26286 -0.480659,0 -0.3604938,0.82085 -0.9012353,0.50514 -0.3004118,-0.18943 -0.420577,-0.0631 -0.1201647,0.12628 0.3004119,0.12629 -0.66090608,0.94715 -0.66090608,1.45228 0,0.44201 -0.66090614,1.13657 -0.42057696,1.57859 0.0600826,0.0631 0.0600826,0.50514 0,0.56827 z m 3.60494262,-8.77686 c 0.3604937,-0.37884 0.720988,-1.26286 1.2016469,-1.45227 0.4806591,-0.18944 0.540741,-0.56829 1.3218124,-0.56829 0.6609056,0 0.7810707,0.12628 0.3004117,-0.25257 -0.060083,-0.0632 0.3604939,0 0.480659,0 0.7810707,0 0.7209882,-0.37886 1.2016471,-0.37886 0.2403298,0 0.420577,0.18943 0.8411534,0 0.1802471,-0.0632 0.5407415,-0.31572 0.6609061,-0.12628 0,0 -1.2617297,0.69456 -0.5407416,0.50514 0.3004124,-0.0632 1.0214002,-0.50514 1.3218122,-0.82086 0.120164,-0.18943 1.441977,-0.25258 1.622224,-0.1263 0.120165,-0.12628 -1.081483,-0.50514 -0.480658,-0.37884 1.321812,0.25256 1.141564,-0.63143 2.0428,-0.56829 0.420576,0 0.420576,-0.25257 0.720989,-0.37887 0.180246,-0.0631 1.261729,-0.7577 1.321812,-0.69455 -0.06008,0.0632 -0.420577,0.37884 -0.240329,0.25256 0.240329,-0.18943 0.300411,-0.18943 0.600823,-0.37885 0.961318,-0.75772 1.50206,-0.18943 1.862554,-1.70486 0.06008,-0.37886 1.021399,-1.01029 1.321811,-1.26287 0,0 1.26173,-0.7577 0.781071,-0.56828 -0.180247,0.0632 -0.420576,0.0632 -0.781071,0.31573 -0.420576,0.31571 -0.360495,0.0631 -0.961318,0.69456 -0.420576,0.442 -0.600823,0.25258 -1.0214,1.07344 -0.300412,0.63142 -0.841153,0.44199 -1.381895,0.63142 -0.600823,0.25256 -1.862553,0.18944 -2.343212,0.56829 -0.660906,0.50513 0.600824,0.37886 0,0.44199 -0.540742,0.12629 -0.300412,0.25257 -1.0214,0.18943 -0.720989,-0.0631 -1.381895,0.50515 -1.922637,0.44199 -0.78107,-0.0631 -0.660905,0.75773 -1.8024699,0.44201 -0.4806596,-0.12628 -0.6609062,0.12628 -0.2403298,-0.18943 0,0 -0.6008235,-0.12628 -1.0214005,0.31571 -0.3004118,0.31573 -1.0214,0.82087 -1.4419769,0.88401 -0.6008235,0.12628 -0.7209881,0.37885 -1.3218118,-0.0632 -0.060083,0 0.4205764,0.442 0.5407417,0.56827 0,0.1263 -0.7209888,0.63145 -0.901236,1.01029 -0.060083,0.25258 -0.4806589,0.88401 -0.6008235,1.07344 -0.060083,0.12629 -0.060083,0.25257 -0.1201645,0.31572 z"
       id="path20"
       inkscape:connector-curvature="0"
       style="clip-rule:evenodd;fill:#8f0000;fill-opacity:1;fill-rule:evenodd;stroke-width:0.06159359;image-rendering:optimizeQuality;shape-rendering:geometricPrecision;text-rendering:geometricPrecision" />
    <circle
       style="opacity:1;vector-effect:none;fill:#ffffff;fill-opacity:1;stroke:none;stroke-width:0.81595778;stroke-linecap:butt;stroke-linejoin:miter;stroke-miterlimit:4;stroke-dasharray:none;stroke-dashoffset:0;stroke-opacity:1"
       id="path2847-9-7"
       cx="11.44217"
       cy="286.59094"
       r="6.3023248" />
    <g
       id="g830-0-6-6-5"
       transform="matrix(-7.2612433e-5,0.00109387,0.00109387,7.2612433e-5,4.9561439,279.28069)"
       style="fill:#000000;stroke:none">
      <path
         id="path826-9-1-3-9"
         d="m 5925,12625 c -248,-21 -380,-39 -378,-51 1,-7 -56,-18 -148,-29 -83,-9 -190,-25 -237,-35 -244,-53 -454,-105 -602,-151 -91,-28 -210,-64 -264,-81 -465,-138 -1038,-415 -1493,-719 -234,-157 -585,-429 -773,-600 -215,-196 -538,-518 -659,-659 C 1087,9970 839,9615 679,9305 602,9157 412,8742 355,8600 248,8329 123,7882 66,7570 16,7293 5,7179 5,6920 c 0,-246 7,-324 27,-318 19,7 37,72 78,278 21,107 43,218 48,245 8,39 9,25 4,-65 -4,-63 -7,-219 -7,-347 0,-255 6,-282 45,-216 17,27 29,79 46,188 l 23,150 -6,-191 c -3,-129 -1,-221 7,-283 13,-91 13,-92 26,-61 10,23 34,227 34,286 0,2 7,4 15,4 25,0 64,152 126,491 32,179 72,384 89,455 35,146 79,298 85,292 3,-2 -2,-39 -10,-82 -18,-92 -17,-86 -5,-86 6,0 10,8 10,18 1,12 5,9 16,-11 8,-15 19,-25 25,-22 5,4 25,37 44,73 20,40 34,59 35,47 0,-12 4,-25 9,-30 5,-6 5,-59 0,-120 -11,-153 4,-275 33,-275 13,0 42,71 108,268 67,195 71,204 80,177 5,-14 15,-1 40,56 75,165 285,573 365,707 101,171 155,249 427,613 292,390 419,544 672,809 125,131 146,145 66,45 -143,-181 -214,-315 -166,-315 18,0 124,82 321,249 593,504 995,778 1507,1025 559,271 1128,428 1798,498 168,17 793,17 960,0 325,-34 662,-97 926,-172 1721,-488 3064,-1775 3618,-3467 119,-365 196,-746 238,-1178 16,-171 16,-682 0,-860 -63,-686 -245,-1327 -557,-1960 C 10792,2995 10163,2277 9375,1745 8492,1150 7504,846 6350,814 5433,788 4565,988 3680,1430 c -141,70 -106,38 50,-46 651,-351 1351,-559 2140,-636 180,-17 819,-17 1000,0 1357,132 2511,667 3474,1612 103,102 234,237 289,300 137,156 146,164 71,60 -18,-25 -32,-53 -31,-62 3,-23 -225,-278 -400,-449 C 9884,1831 9467,1522 9010,1277 8762,1144 8305,973 7949,881 7517,769 7190,724 6630,700 c -140,-6 -292,-15 -337,-21 -203,-24 -781,41 -1163,132 -885,211 -1709,627 -2425,1225 -119,100 -403,375 -586,569 -147,155 -313,363 -449,563 -35,51 -65,90 -68,87 -15,-15 245,-368 409,-556 46,-53 119,-137 162,-187 110,-127 430,-438 572,-558 576,-480 1211,-831 1915,-1058 206,-67 518,-145 715,-181 77,-13 163,-29 190,-34 30,-5 39,-9 23,-10 -53,-2 -386,60 -586,110 -385,95 -769,234 -1117,405 -851,418 -1542,989 -2093,1732 -58,78 -107,140 -110,137 -6,-5 68,-110 177,-250 496,-637 1112,-1160 1806,-1532 882,-472 1890,-706 2925,-679 135,3 283,8 330,11 l 85,4 -88,-14 c -162,-25 -410,-38 -687,-38 -620,1 -1087,74 -1620,253 -488,164 -1043,444 -1460,736 -1013,709 -1779,1701 -2169,2807 -65,186 -84,177 -22,-10 311,-944 925,-1853 1713,-2538 43,-37 78,-70 78,-72 0,-3 -26,16 -57,43 -353,296 -662,622 -938,989 -226,300 -383,560 -602,995 -85,168 -161,312 -169,320 -12,12 -14,12 -14,-5 0,-24 19,-87 54,-179 14,-37 24,-72 21,-77 -17,-27 300,-594 496,-886 353,-526 832,-1029 1354,-1423 146,-109 419,-290 580,-384 164,-95 184,-110 70,-50 -272,141 -644,395 -930,634 -449,374 -826,792 -1143,1268 -116,172 -235,372 -228,379 8,8 -54,126 -79,148 -11,11 -36,56 -54,100 -18,44 -57,125 -86,180 -107,200 -264,636 -350,969 -110,428 -165,790 -185,1231 -14,292 -17,314 -18,135 -5,-434 80,-1004 223,-1501 165,-571 420,-1128 741,-1616 52,-79 92,-149 89,-154 -12,-18 130,-212 375,-513 17,-21 4,-14 -40,23 -74,61 -87,54 -41,-22 l 31,-52 -46,50 c -76,81 -272,329 -376,475 -323,454 -602,985 -785,1495 -28,77 -56,154 -62,170 l -11,30 4,-35 c 2,-19 32,-114 66,-210 307,-859 797,-1636 1440,-2281 204,-204 313,-302 540,-484 246,-197 366,-285 570,-420 863,-573 1830,-901 2872,-975 216,-15 656,-12 879,6 751,60 1493,262 2168,590 577,280 1163,678 1588,1078 57,53 105,96 107,96 17,0 -37,-70 -102,-131 C 10303,1358 9716,955 9187,700 8343,292 7470,89 6510,75 5535,62 4610,266 3726,690 2825,1122 2045,1762 1437,2570 763,3465 355,4467 220,5560 c -29,238 -51,380 -60,385 -30,18 -16,-313 25,-588 C 340,4302 761,3306 1404,2470 2040,1643 2891,976 3850,552 4958,62 6130,-95 7360,81 c 721,103 1501,368 2144,729 801,448 1448,1019 2014,1775 431,575 781,1295 987,2030 155,554 223,1053 239,1755 1,74 2,-25 0,-220 -1,-237 -8,-407 -18,-510 -108,-1043 -415,-1944 -957,-2809 -60,-96 -108,-176 -105,-178 7,-8 73,81 154,207 491,769 804,1643 926,2580 48,370 65,930 37,1265 -60,737 -217,1389 -481,2000 -28,66 -65,160 -82,209 -154,458 -537,1096 -958,1596 -147,174 -459,487 -625,624 -287,238 -632,480 -835,585 -416,214 -583,292 -850,396 -74,29 -207,82 -295,117 -479,195 -1020,322 -1635,384 -230,23 -864,28 -1095,9 z m -1790,-502 c -685,-272 -1356,-675 -1885,-1132 -142,-123 -401,-375 -540,-526 -91,-99 -89,-91 9,30 261,322 768,749 1256,1057 338,214 800,451 1080,554 90,33 156,47 80,17 z m -814,-577 c -7,-8 -53,-39 -104,-69 -389,-232 -858,-607 -1152,-919 -107,-114 -412,-408 -371,-358 15,19 88,100 161,180 391,426 844,798 1349,1107 66,40 122,73 124,73 3,0 -1,-6 -7,-14 z M 1150,9495 c 0,-2 -18,-34 -40,-70 -51,-83 -137,-254 -209,-416 -31,-69 -66,-135 -77,-147 -39,-42 -261,-553 -324,-747 -21,-67 -40,-103 -40,-78 0,38 140,422 225,619 101,234 264,541 421,797 25,40 44,59 44,42 z M 714,8543 C 632,8347 496,7938 447,7740 410,7590 365,7344 331,7112 c -11,-73 -24,-139 -29,-145 -5,-7 -12,-21 -15,-32 -12,-41 5,96 39,316 37,245 84,449 163,710 74,248 249,709 258,682 2,-6 -13,-51 -33,-100 z M 177,7188 c -3,-8 -6,-5 -6,6 -1,11 2,17 5,13 3,-3 4,-12 1,-19 z m 128,-357 c -4,-25 -10,-40 -12,-33 -3,7 -2,39 3,70 5,36 9,48 12,33 2,-13 1,-45 -3,-70 z M 2486,1799 C 3082,1276 3777,879 4530,630 4884,513 5287,424 5703,370 c 140,-18 197,-29 312,-59 57,-15 -83,-6 -291,19 -1347,163 -2586,767 -3509,1711 l -120,123 136,-130 c 74,-72 189,-177 255,-235 z M 5663,663 c -7,-2 -21,-2 -30,0 -10,3 -4,5 12,5 17,0 24,-2 18,-5 z"
         inkscape:connector-curvature="0" />
      <path
         id="path828-6-1-1-7"
         d="M 11489,2413 C 11061,1869 10568,1414 9995,1035 9197,506 8303,167 7380,41 7180,13 7152,8 7168,3 c 20,-8 331,36 527,73 949,183 1837,577 2620,1165 349,261 677,566 963,893 128,147 276,335 269,342 -2,3 -29,-26 -58,-63 z"
         inkscape:connector-curvature="0" />
    </g>
  </g>
</svg>
